<svg width="167" height="48" viewBox="0 0 167 48" fill="none" xmlns="http://www.w3.org/2000/svg">
<g clip-path="url(#clip0_1_8500)">
<g filter="url(#filter0_d_1_8500)">
<rect width="167" height="48" rx="12" fill="#023047"/>
<rect x="0.5" y="0.5" width="166" height="47" rx="11.5" stroke="#023047"/>
<path d="M24.0341 18.3636V30H22.2784V18.3636H24.0341ZM28.1534 24.8182V30H26.4545V21.2727H28.0852V22.6932H28.1932C28.3939 22.2311 28.7083 21.8598 29.1364 21.5795C29.5682 21.2992 30.1117 21.1591 30.767 21.1591C31.3617 21.1591 31.8826 21.2841 32.3295 21.5341C32.7765 21.7803 33.1231 22.1477 33.3693 22.6364C33.6155 23.125 33.7386 23.7292 33.7386 24.4489V30H32.0398V24.6534C32.0398 24.0208 31.875 23.5265 31.5455 23.1705C31.2159 22.8106 30.7633 22.6307 30.1875 22.6307C29.7936 22.6307 29.4432 22.7159 29.1364 22.8864C28.8333 23.0568 28.5928 23.3068 28.4148 23.6364C28.2405 23.9621 28.1534 24.3561 28.1534 24.8182ZM42.5568 23.4034L41.017 23.6761C40.9527 23.4792 40.8504 23.2917 40.7102 23.1136C40.5739 22.9356 40.3883 22.7898 40.1534 22.6761C39.9186 22.5625 39.625 22.5057 39.2727 22.5057C38.7917 22.5057 38.3902 22.6136 38.0682 22.8295C37.7462 23.0417 37.5852 23.3163 37.5852 23.6534C37.5852 23.9451 37.6932 24.1799 37.9091 24.358C38.125 24.536 38.4735 24.6818 38.9545 24.7955L40.3409 25.1136C41.1439 25.2992 41.7424 25.5852 42.1364 25.9716C42.5303 26.358 42.7273 26.8598 42.7273 27.4773C42.7273 28 42.5758 28.4659 42.2727 28.875C41.9735 29.2803 41.5549 29.5985 41.017 29.8295C40.483 30.0606 39.8636 30.1761 39.1591 30.1761C38.1818 30.1761 37.3845 29.9678 36.767 29.5511C36.1496 29.1307 35.7708 28.5341 35.6307 27.7614L37.2727 27.5114C37.375 27.9394 37.5852 28.2633 37.9034 28.483C38.2216 28.6989 38.6364 28.8068 39.1477 28.8068C39.7045 28.8068 40.1496 28.6913 40.483 28.4602C40.8163 28.2254 40.983 27.9394 40.983 27.6023C40.983 27.3295 40.8807 27.1004 40.6761 26.9148C40.4754 26.7292 40.1667 26.589 39.75 26.4943L38.2727 26.1705C37.4583 25.9848 36.8561 25.6894 36.4659 25.2841C36.0795 24.8788 35.8864 24.3655 35.8864 23.7443C35.8864 23.2292 36.0303 22.7784 36.3182 22.392C36.6061 22.0057 37.0038 21.7045 37.5114 21.4886C38.0189 21.2689 38.6004 21.1591 39.2557 21.1591C40.1989 21.1591 40.9413 21.3636 41.483 21.7727C42.0246 22.178 42.3826 22.7216 42.5568 23.4034ZM48.669 21.2727V22.6364H43.902V21.2727H48.669ZM45.1804 19.1818H46.8793V27.4375C46.8793 27.767 46.9285 28.0152 47.027 28.1818C47.1255 28.3447 47.2524 28.4564 47.4077 28.517C47.5668 28.5739 47.7391 28.6023 47.9247 28.6023C48.0611 28.6023 48.1804 28.5928 48.2827 28.5739C48.3849 28.5549 48.4645 28.5398 48.5213 28.5284L48.8281 29.9318C48.7296 29.9697 48.5895 30.0076 48.4077 30.0455C48.2259 30.0871 47.9986 30.1098 47.7259 30.1136C47.2789 30.1212 46.8622 30.0417 46.4759 29.875C46.0895 29.7083 45.777 29.4508 45.5384 29.1023C45.2997 28.7538 45.1804 28.3163 45.1804 27.7898V19.1818ZM53.0881 30.1932C52.535 30.1932 52.035 30.0909 51.5881 29.8864C51.1411 29.678 50.7869 29.3769 50.5256 28.983C50.268 28.589 50.1392 28.1061 50.1392 27.5341C50.1392 27.0417 50.2339 26.6364 50.4233 26.3182C50.6127 26 50.8684 25.7481 51.1903 25.5625C51.5123 25.3769 51.8722 25.2367 52.2699 25.142C52.6676 25.0473 53.0729 24.9754 53.4858 24.9261C54.0085 24.8655 54.4328 24.8163 54.7585 24.7784C55.0843 24.7367 55.321 24.6705 55.4688 24.5795C55.6165 24.4886 55.6903 24.3409 55.6903 24.1364V24.0966C55.6903 23.6004 55.5502 23.2159 55.2699 22.9432C54.9934 22.6705 54.5805 22.5341 54.0312 22.5341C53.4593 22.5341 53.0085 22.661 52.679 22.9148C52.3532 23.1648 52.1278 23.4432 52.0028 23.75L50.4062 23.3864C50.5956 22.8561 50.8722 22.428 51.2358 22.1023C51.6032 21.7727 52.0256 21.5341 52.5028 21.3864C52.9801 21.2348 53.482 21.1591 54.0085 21.1591C54.357 21.1591 54.7263 21.2008 55.1165 21.2841C55.5104 21.3636 55.8778 21.5114 56.2188 21.7273C56.5634 21.9432 56.8456 22.2519 57.0653 22.6534C57.285 23.0511 57.3949 23.5682 57.3949 24.2045V30H55.7358V28.8068H55.6676C55.5578 29.0265 55.393 29.2424 55.1733 29.4545C54.9536 29.6667 54.6714 29.8428 54.3267 29.983C53.982 30.1231 53.5691 30.1932 53.0881 30.1932ZM53.4574 28.8295C53.9271 28.8295 54.3286 28.7367 54.6619 28.5511C54.9991 28.3655 55.2547 28.1231 55.429 27.8239C55.607 27.5208 55.696 27.197 55.696 26.8523V25.7273C55.6354 25.7879 55.518 25.8447 55.3438 25.8977C55.1733 25.947 54.9782 25.9905 54.7585 26.0284C54.5388 26.0625 54.3248 26.0947 54.1165 26.125C53.9081 26.1515 53.7339 26.1742 53.5938 26.1932C53.2642 26.2348 52.9631 26.3049 52.6903 26.4034C52.4214 26.5019 52.2055 26.6439 52.0426 26.8295C51.8835 27.0114 51.804 27.2538 51.804 27.5568C51.804 27.9773 51.9593 28.2955 52.2699 28.5114C52.5805 28.7235 52.9763 28.8295 53.4574 28.8295ZM61.3565 18.3636V30H59.6577V18.3636H61.3565ZM65.3409 18.3636V30H63.642V18.3636H65.3409ZM71.9972 30V18.3636H73.7528V23.9205H73.8949L78.7756 18.3636H80.9858L76.2926 23.6023L81.0028 30H78.8892L75.1278 24.8011L73.7528 26.3807V30H71.9972ZM85.5213 30.1761C84.7031 30.1761 83.9891 29.9886 83.3793 29.6136C82.7694 29.2386 82.2959 28.714 81.9588 28.0398C81.6217 27.3655 81.4531 26.5777 81.4531 25.6761C81.4531 24.7708 81.6217 23.9792 81.9588 23.3011C82.2959 22.6231 82.7694 22.0966 83.3793 21.7216C83.9891 21.3466 84.7031 21.1591 85.5213 21.1591C86.3395 21.1591 87.0535 21.3466 87.6634 21.7216C88.2732 22.0966 88.7467 22.6231 89.0838 23.3011C89.4209 23.9792 89.5895 24.7708 89.5895 25.6761C89.5895 26.5777 89.4209 27.3655 89.0838 28.0398C88.7467 28.714 88.2732 29.2386 87.6634 29.6136C87.0535 29.9886 86.3395 30.1761 85.5213 30.1761ZM85.527 28.75C86.0573 28.75 86.4967 28.6098 86.8452 28.3295C87.1937 28.0492 87.4512 27.6761 87.6179 27.2102C87.7884 26.7443 87.8736 26.2311 87.8736 25.6705C87.8736 25.1136 87.7884 24.6023 87.6179 24.1364C87.4512 23.6667 87.1937 23.2898 86.8452 23.0057C86.4967 22.7216 86.0573 22.5795 85.527 22.5795C84.9929 22.5795 84.5497 22.7216 84.1974 23.0057C83.849 23.2898 83.5895 23.6667 83.419 24.1364C83.2524 24.6023 83.169 25.1136 83.169 25.6705C83.169 26.2311 83.2524 26.7443 83.419 27.2102C83.5895 27.6761 83.849 28.0492 84.1974 28.3295C84.5497 28.6098 84.9929 28.75 85.527 28.75ZM91.6222 30V18.3636H93.321V22.6875H93.4233C93.5218 22.5057 93.6638 22.2955 93.8494 22.0568C94.035 21.8182 94.2926 21.6098 94.6222 21.4318C94.9517 21.25 95.3873 21.1591 95.929 21.1591C96.6335 21.1591 97.2623 21.3371 97.8153 21.6932C98.3684 22.0492 98.8021 22.5625 99.1165 23.233C99.4347 23.9034 99.5938 24.7102 99.5938 25.6534C99.5938 26.5966 99.4366 27.4053 99.1222 28.0795C98.8078 28.75 98.3759 29.267 97.8267 29.6307C97.2775 29.9905 96.6506 30.1705 95.946 30.1705C95.4157 30.1705 94.982 30.0814 94.6449 29.9034C94.3116 29.7254 94.0502 29.517 93.8608 29.2784C93.6714 29.0398 93.5256 28.8277 93.4233 28.642H93.2812V30H91.6222ZM93.2869 25.6364C93.2869 26.25 93.3759 26.7879 93.554 27.25C93.732 27.7121 93.9896 28.0739 94.3267 28.3352C94.6638 28.5928 95.0767 28.7216 95.5653 28.7216C96.0729 28.7216 96.4972 28.5871 96.8381 28.3182C97.179 28.0455 97.4366 27.6761 97.6108 27.2102C97.7888 26.7443 97.8778 26.2197 97.8778 25.6364C97.8778 25.0606 97.7907 24.5436 97.6165 24.0852C97.446 23.6269 97.1884 23.2652 96.8438 23C96.5028 22.7348 96.0767 22.6023 95.5653 22.6023C95.0729 22.6023 94.6562 22.7292 94.3153 22.983C93.9782 23.2367 93.7225 23.5909 93.5483 24.0455C93.3741 24.5 93.2869 25.0303 93.2869 25.6364ZM105.178 30.1761C104.359 30.1761 103.645 29.9886 103.036 29.6136C102.426 29.2386 101.952 28.714 101.615 28.0398C101.278 27.3655 101.109 26.5777 101.109 25.6761C101.109 24.7708 101.278 23.9792 101.615 23.3011C101.952 22.6231 102.426 22.0966 103.036 21.7216C103.645 21.3466 104.359 21.1591 105.178 21.1591C105.996 21.1591 106.71 21.3466 107.32 21.7216C107.929 22.0966 108.403 22.6231 108.74 23.3011C109.077 23.9792 109.246 24.7708 109.246 25.6761C109.246 26.5777 109.077 27.3655 108.74 28.0398C108.403 28.714 107.929 29.2386 107.32 29.6136C106.71 29.9886 105.996 30.1761 105.178 30.1761ZM105.183 28.75C105.714 28.75 106.153 28.6098 106.501 28.3295C106.85 28.0492 107.107 27.6761 107.274 27.2102C107.445 26.7443 107.53 26.2311 107.53 25.6705C107.53 25.1136 107.445 24.6023 107.274 24.1364C107.107 23.6667 106.85 23.2898 106.501 23.0057C106.153 22.7216 105.714 22.5795 105.183 22.5795C104.649 22.5795 104.206 22.7216 103.854 23.0057C103.505 23.2898 103.246 23.6667 103.075 24.1364C102.909 24.6023 102.825 25.1136 102.825 25.6705C102.825 26.2311 102.909 26.7443 103.075 27.2102C103.246 27.6761 103.505 28.0492 103.854 28.3295C104.206 28.6098 104.649 28.75 105.183 28.75ZM114.409 30.1705C113.705 30.1705 113.076 29.9905 112.523 29.6307C111.973 29.267 111.542 28.75 111.227 28.0795C110.917 27.4053 110.761 26.5966 110.761 25.6534C110.761 24.7102 110.919 23.9034 111.233 23.233C111.551 22.5625 111.987 22.0492 112.54 21.6932C113.093 21.3371 113.72 21.1591 114.42 21.1591C114.962 21.1591 115.398 21.25 115.727 21.4318C116.061 21.6098 116.318 21.8182 116.5 22.0568C116.686 22.2955 116.83 22.5057 116.932 22.6875H117.034V18.3636H118.733V30H117.074V28.642H116.932C116.83 28.8277 116.682 29.0398 116.489 29.2784C116.299 29.517 116.038 29.7254 115.705 29.9034C115.371 30.0814 114.939 30.1705 114.409 30.1705ZM114.784 28.7216C115.273 28.7216 115.686 28.5928 116.023 28.3352C116.364 28.0739 116.621 27.7121 116.795 27.25C116.973 26.7879 117.062 26.25 117.062 25.6364C117.062 25.0303 116.975 24.5 116.801 24.0455C116.627 23.5909 116.371 23.2367 116.034 22.983C115.697 22.7292 115.28 22.6023 114.784 22.6023C114.273 22.6023 113.847 22.7348 113.506 23C113.165 23.2652 112.907 23.6269 112.733 24.0852C112.563 24.5436 112.477 25.0606 112.477 25.6364C112.477 26.2197 112.564 26.7443 112.739 27.2102C112.913 27.6761 113.17 28.0455 113.511 28.3182C113.856 28.5871 114.28 28.7216 114.784 28.7216ZM121.158 30V21.2727H122.8V22.6591H122.891C123.05 22.1894 123.33 21.8201 123.732 21.5511C124.137 21.2784 124.595 21.142 125.107 21.142C125.213 21.142 125.338 21.1458 125.482 21.1534C125.629 21.161 125.745 21.1705 125.828 21.1818V22.8068C125.76 22.7879 125.639 22.767 125.464 22.7443C125.29 22.7178 125.116 22.7045 124.942 22.7045C124.54 22.7045 124.182 22.7898 123.868 22.9602C123.557 23.1269 123.311 23.3598 123.129 23.6591C122.947 23.9545 122.857 24.2917 122.857 24.6705V30H121.158ZM130.662 30.1761C129.844 30.1761 129.13 29.9886 128.52 29.6136C127.91 29.2386 127.437 28.714 127.099 28.0398C126.762 27.3655 126.594 26.5777 126.594 25.6761C126.594 24.7708 126.762 23.9792 127.099 23.3011C127.437 22.6231 127.91 22.0966 128.52 21.7216C129.13 21.3466 129.844 21.1591 130.662 21.1591C131.48 21.1591 132.194 21.3466 132.804 21.7216C133.414 22.0966 133.887 22.6231 134.224 23.3011C134.562 23.9792 134.73 24.7708 134.73 25.6761C134.73 26.5777 134.562 27.3655 134.224 28.0398C133.887 28.714 133.414 29.2386 132.804 29.6136C132.194 29.9886 131.48 30.1761 130.662 30.1761ZM130.668 28.75C131.198 28.75 131.637 28.6098 131.986 28.3295C132.334 28.0492 132.592 27.6761 132.759 27.2102C132.929 26.7443 133.014 26.2311 133.014 25.6705C133.014 25.1136 132.929 24.6023 132.759 24.1364C132.592 23.6667 132.334 23.2898 131.986 23.0057C131.637 22.7216 131.198 22.5795 130.668 22.5795C130.134 22.5795 129.69 22.7216 129.338 23.0057C128.99 23.2898 128.73 23.6667 128.56 24.1364C128.393 24.6023 128.31 25.1136 128.31 25.6705C128.31 26.2311 128.393 26.7443 128.56 27.2102C128.73 27.6761 128.99 28.0492 129.338 28.3295C129.69 28.6098 130.134 28.75 130.668 28.75ZM136.626 33.2727V21.2727H138.286V22.6875H138.428C138.526 22.5057 138.668 22.2955 138.854 22.0568C139.039 21.8182 139.297 21.6098 139.626 21.4318C139.956 21.25 140.392 21.1591 140.933 21.1591C141.638 21.1591 142.267 21.3371 142.82 21.6932C143.373 22.0492 143.806 22.5625 144.121 23.233C144.439 23.9034 144.598 24.7102 144.598 25.6534C144.598 26.5966 144.441 27.4053 144.126 28.0795C143.812 28.75 143.38 29.267 142.831 29.6307C142.282 29.9905 141.655 30.1705 140.95 30.1705C140.42 30.1705 139.986 30.0814 139.649 29.9034C139.316 29.7254 139.054 29.517 138.865 29.2784C138.676 29.0398 138.53 28.8277 138.428 28.642H138.325V33.2727H136.626ZM138.291 25.6364C138.291 26.25 138.38 26.7879 138.558 27.25C138.736 27.7121 138.994 28.0739 139.331 28.3352C139.668 28.5928 140.081 28.7216 140.57 28.7216C141.077 28.7216 141.501 28.5871 141.842 28.3182C142.183 28.0455 142.441 27.6761 142.615 27.2102C142.793 26.7443 142.882 26.2197 142.882 25.6364C142.882 25.0606 142.795 24.5436 142.621 24.0852C142.45 23.6269 142.193 23.2652 141.848 23C141.507 22.7348 141.081 22.6023 140.57 22.6023C140.077 22.6023 139.661 22.7292 139.32 22.983C138.982 23.2367 138.727 23.5909 138.553 24.0455C138.378 24.5 138.291 25.0303 138.291 25.6364Z" fill="white"/>
</g>
</g>
<defs>
<filter id="filter0_d_1_8500" x="-2" y="-1" width="171" height="52" filterUnits="userSpaceOnUse" color-interpolation-filters="sRGB">
<feFlood flood-opacity="0" result="BackgroundImageFix"/>
<feColorMatrix in="SourceAlpha" type="matrix" values="0 0 0 0 0 0 0 0 0 0 0 0 0 0 0 0 0 0 127 0" result="hardAlpha"/>
<feOffset dy="1"/>
<feGaussianBlur stdDeviation="1"/>
<feColorMatrix type="matrix" values="0 0 0 0 0.0627451 0 0 0 0 0.0941176 0 0 0 0 0.156863 0 0 0 0.05 0"/>
<feBlend mode="normal" in2="BackgroundImageFix" result="effect1_dropShadow_1_8500"/>
<feBlend mode="normal" in="SourceGraphic" in2="effect1_dropShadow_1_8500" result="shape"/>
</filter>
<clipPath id="clip0_1_8500">
<rect width="167" height="48" rx="12" fill="white"/>
</clipPath>
</defs>
</svg>
