<svg width="76" height="47" viewBox="0 0 76 47" fill="none" xmlns="http://www.w3.org/2000/svg">
<g id="Mastercard">
<path id="Left" fill-rule="evenodd" clip-rule="evenodd" d="M52.6844 46.6866C65.2466 46.6866 75.4303 36.3847 75.4303 23.6767C75.4303 10.9687 65.2466 0.666748 52.6844 0.666748C47.0544 0.666748 41.9022 2.73593 37.9303 6.16353C33.9584 2.73597 28.8062 0.666829 23.1763 0.666829C10.614 0.666829 0.430359 10.9687 0.430359 23.6768C0.430359 36.3848 10.614 46.6867 23.1763 46.6867C28.8062 46.6867 33.9585 44.6176 37.9304 41.1899C41.9023 44.6175 47.0545 46.6866 52.6844 46.6866Z" fill="#ED0006"/>
<path id="Right" fill-rule="evenodd" clip-rule="evenodd" d="M37.9304 41.1899C42.821 36.9694 45.9222 30.6894 45.9222 23.6767C45.9222 16.664 42.821 10.3839 37.9304 6.1635C41.9023 2.73591 47.0545 0.666748 52.6844 0.666748C65.2467 0.666748 75.4303 10.9687 75.4303 23.6767C75.4303 36.3847 65.2467 46.6866 52.6844 46.6866C47.0545 46.6866 41.9023 44.6175 37.9304 41.1899Z" fill="#F9A000"/>
<path id="Middle" fill-rule="evenodd" clip-rule="evenodd" d="M37.9304 41.1898C42.8211 36.9693 45.9222 30.6894 45.9222 23.6767C45.9222 16.664 42.8211 10.384 37.9304 6.16357C33.0398 10.384 29.9387 16.664 29.9387 23.6767C29.9387 30.6894 33.0398 36.9693 37.9304 41.1898Z" fill="#FF5E00"/>
</g>
</svg>
