<svg width="194" height="48" viewBox="0 0 194 48" fill="none" xmlns="http://www.w3.org/2000/svg">
<g filter="url(#filter0_b_1_8532)">
<rect width="193.628" height="48" rx="5.18919" fill="white" fill-opacity="0.96"/>
<rect x="0.324325" y="0.324325" width="192.979" height="47.3514" rx="4.86487" stroke="white" stroke-width="0.648649"/>
<rect x="10.3784" y="10.3784" width="39.7298" height="27.2433" rx="3.8919" fill="white"/>
<path fill-rule="evenodd" clip-rule="evenodd" d="M30.527 29.8539C29.1744 31.0211 27.4199 31.7257 25.5027 31.7257C21.2247 31.7257 17.7568 28.2175 17.7568 23.8899C17.7568 19.5623 21.2247 16.0541 25.5027 16.0541C27.4199 16.0541 29.1745 16.7587 30.5271 17.926C31.8797 16.7587 33.6342 16.0541 35.5514 16.0541C39.8294 16.0541 43.2973 19.5623 43.2973 23.8899C43.2973 28.2175 39.8294 31.7258 35.5514 31.7258C33.6342 31.7258 31.8796 31.0211 30.527 29.8539Z" fill="#ED0006"/>
<path fill-rule="evenodd" clip-rule="evenodd" d="M30.5271 29.8539C32.1925 28.4166 33.2486 26.278 33.2486 23.8899C33.2486 21.5018 32.1925 19.3632 30.5271 17.9259C31.8797 16.7587 33.6342 16.0541 35.5514 16.0541C39.8294 16.0541 43.2973 19.5623 43.2973 23.8899C43.2973 28.2175 39.8294 31.7257 35.5514 31.7257C33.6342 31.7257 31.8797 31.0211 30.5271 29.8539Z" fill="#F9A000"/>
<path fill-rule="evenodd" clip-rule="evenodd" d="M30.5271 29.8539C32.1925 28.4166 33.2486 26.2781 33.2486 23.8899C33.2486 21.5018 32.1925 19.3633 30.5271 17.926C28.8616 19.3633 27.8056 21.5018 27.8056 23.8899C27.8056 26.2781 28.8616 28.4166 30.5271 29.8539Z" fill="#FF5E00"/>
<rect x="55.2974" y="13.5406" width="69.7897" height="7.94595" rx="3.97297" fill="#E6E6E6"/>
<rect x="55.2974" y="26.6758" width="44.7568" height="7.78378" rx="3.89189" fill="#E6E6E6"/>
<path d="M134.839 28.7614V21.0795H136.367V28.7614H134.839ZM131.765 25.6818V24.1534H139.447V25.6818H131.765Z" fill="#00112D"/>
<path d="M142.573 22.0541H143.87V18.1622H145.168L147.386 22.0541H150.357V18.1622H151.654V22.0541H152.952V23.3514H151.654V24.6487H152.952V25.946H151.654V29.8379H150.357L148.132 25.946H145.168V29.8379H143.87V25.946H142.573V24.6487H143.87V23.3514H142.573V22.0541ZM145.168 22.0541H145.901L145.168 20.7763V22.0541ZM145.168 23.3514V24.6487H147.386L146.647 23.3514H145.168ZM150.357 27.2433V25.946H149.611L150.357 27.2433ZM148.126 23.3514L148.872 24.6487H150.357V23.3514H148.126Z" fill="#00112D"/>
<path d="M159.783 17.8636V29.5H158.022V19.625H157.954L155.17 21.4432V19.7614L158.073 17.8636H159.783ZM166.982 29.6932C166.084 29.6894 165.317 29.4527 164.681 28.983C164.045 28.5133 163.558 27.8295 163.221 26.9318C162.884 26.0341 162.715 24.9527 162.715 23.6875C162.715 22.4261 162.884 21.3485 163.221 20.4545C163.562 19.5606 164.05 18.8788 164.687 18.4091C165.327 17.9394 166.092 17.7045 166.982 17.7045C167.872 17.7045 168.636 17.9413 169.272 18.4148C169.908 18.8845 170.395 19.5663 170.732 20.4602C171.073 21.3504 171.244 22.4261 171.244 23.6875C171.244 24.9564 171.075 26.0398 170.738 26.9375C170.401 27.8314 169.914 28.5152 169.278 28.9886C168.641 29.4583 167.876 29.6932 166.982 29.6932ZM166.982 28.1761C167.77 28.1761 168.386 27.7917 168.829 27.0227C169.276 26.2538 169.499 25.142 169.499 23.6875C169.499 22.7216 169.397 21.9053 169.192 21.2386C168.992 20.5682 168.702 20.0606 168.323 19.7159C167.948 19.3674 167.501 19.1932 166.982 19.1932C166.198 19.1932 165.583 19.5795 165.136 20.3523C164.689 21.125 164.463 22.2367 164.459 23.6875C164.459 24.6572 164.56 25.4773 164.761 26.1477C164.965 26.8144 165.255 27.3201 165.63 27.6648C166.005 28.0057 166.456 28.1761 166.982 28.1761ZM177.31 29.6932C176.413 29.6894 175.646 29.4527 175.009 28.983C174.373 28.5133 173.886 27.8295 173.549 26.9318C173.212 26.0341 173.043 24.9527 173.043 23.6875C173.043 22.4261 173.212 21.3485 173.549 20.4545C173.89 19.5606 174.378 18.8788 175.015 18.4091C175.655 17.9394 176.42 17.7045 177.31 17.7045C178.2 17.7045 178.964 17.9413 179.6 18.4148C180.236 18.8845 180.723 19.5663 181.06 20.4602C181.401 21.3504 181.572 22.4261 181.572 23.6875C181.572 24.9564 181.403 26.0398 181.066 26.9375C180.729 27.8314 180.242 28.5152 179.606 28.9886C178.969 29.4583 178.204 29.6932 177.31 29.6932ZM177.31 28.1761C178.098 28.1761 178.714 27.7917 179.157 27.0227C179.604 26.2538 179.827 25.142 179.827 23.6875C179.827 22.7216 179.725 21.9053 179.521 21.2386C179.32 20.5682 179.03 20.0606 178.651 19.7159C178.276 19.3674 177.829 19.1932 177.31 19.1932C176.526 19.1932 175.911 19.5795 175.464 20.3523C175.017 21.125 174.791 22.2367 174.788 23.6875C174.788 24.6572 174.888 25.4773 175.089 26.1477C175.293 26.8144 175.583 27.3201 175.958 27.6648C176.333 28.0057 176.784 28.1761 177.31 28.1761Z" fill="#00112D"/>
</g>
<defs>
<filter id="filter0_b_1_8532" x="-10.3784" y="-10.3784" width="214.384" height="68.7568" filterUnits="userSpaceOnUse" color-interpolation-filters="sRGB">
<feFlood flood-opacity="0" result="BackgroundImageFix"/>
<feGaussianBlur in="BackgroundImageFix" stdDeviation="5.18919"/>
<feComposite in2="SourceAlpha" operator="in" result="effect1_backgroundBlur_1_8532"/>
<feBlend mode="normal" in="SourceGraphic" in2="effect1_backgroundBlur_1_8532" result="shape"/>
</filter>
</defs>
</svg>
