<svg width="93" height="33" viewBox="0 0 93 33" fill="none" xmlns="http://www.w3.org/2000/svg">
<g id="Payoneer">
<path id="Payoneer_2" fill-rule="evenodd" clip-rule="evenodd" d="M0.500031 25.2006C0.561064 24.8726 0.616961 24.555 0.671756 24.2436C0.756446 23.7623 0.838506 23.296 0.932839 22.8296C1.33235 20.7203 1.73464 18.6137 2.13693 16.5071C2.53922 14.4005 2.94151 12.2939 3.34103 10.1845C3.39652 9.9173 3.4742 9.7392 3.74055 9.69468C5.81581 9.383 7.90217 9.16038 9.97744 9.68355C11.7864 10.1288 13.0515 11.4089 13.2623 12.9116C13.6952 15.906 11.9528 18.2992 9.36706 19.1563C8.00205 19.6015 6.61484 19.7129 5.20544 19.5793C4.87251 19.5459 4.77263 19.6349 4.71714 19.9577C4.41751 21.5941 4.10677 23.2192 3.78494 24.8444C3.76274 24.978 3.64067 25.1895 3.56299 25.1895C2.80877 25.2061 2.06694 25.2041 1.29588 25.202C1.0345 25.2013 0.769753 25.2006 0.500031 25.2006ZM5.90378 16.9412L5.90384 16.9412C6.33793 16.953 6.74784 16.9642 7.14751 16.9188C8.30166 16.7963 9.22277 16.2732 9.74436 15.1712C10.3325 13.9245 9.91083 12.5998 8.80106 12.2102C8.01313 11.932 7.203 11.9876 6.39287 12.0989C6.29299 12.1101 6.15982 12.2659 6.13762 12.3661C5.98239 13.1819 5.82716 14.0013 5.6661 14.8514L5.66597 14.8521C5.53921 15.5212 5.40883 16.2094 5.272 16.9299C5.48893 16.9299 5.69903 16.9356 5.90375 16.9412H5.90376H5.90376H5.90377H5.90378ZM20.1761 23.0634C20.0006 23.2466 19.8361 23.4309 19.6753 23.611C19.3281 24 18.9983 24.3696 18.6114 24.6663C17.4461 25.568 16.1144 25.7683 14.7716 25.145C13.4399 24.5327 12.8961 23.3417 12.8406 21.9391C12.7185 18.9893 13.7506 16.5516 16.2254 14.8596C17.7791 13.791 19.5658 13.4682 21.4191 13.5684C22.0321 13.6046 22.6405 13.7113 23.2503 13.8182C23.5787 13.8758 23.9076 13.9335 24.2379 13.9803C24.6152 14.0359 24.6707 14.2474 24.6041 14.5702C24.515 15.0358 24.425 15.5008 24.335 15.9655L24.335 15.9656L24.335 15.9656L24.335 15.9656L24.3349 15.9656L24.3349 15.9657C23.9988 17.7012 23.6635 19.4327 23.3834 21.1711C23.2227 22.1663 23.1586 23.1857 23.0952 24.195C23.0841 24.371 23.0731 24.5467 23.0615 24.722C23.0393 25.0782 22.9506 25.2229 22.5843 25.2118C21.8963 25.1895 21.2082 25.1895 20.5202 25.2118C20.1651 25.2229 20.043 25.0893 20.0763 24.7442C20.1079 24.363 20.1283 23.9705 20.1495 23.5626L20.1495 23.5624L20.1495 23.5623L20.1495 23.5622L20.1495 23.5622L20.1495 23.5621C20.158 23.3984 20.1666 23.2323 20.1761 23.0634ZM20.953 16.1842C19.8765 15.8837 18.9776 16.0952 18.223 16.7296C16.8025 17.9318 16.1588 19.4902 16.2809 21.3491C16.3142 21.9168 16.5361 22.4623 17.1354 22.7072C17.7347 22.952 18.2785 22.7739 18.7446 22.3732C19.022 22.1283 19.2884 21.85 19.4881 21.5384C20.2709 20.34 20.4847 18.9882 20.7019 17.6152C20.7772 17.1389 20.853 16.6601 20.953 16.1842ZM36.6784 22.4177C37.2888 24.3768 38.9646 25.4676 41.9054 25.4676C43.9252 25.412 45.9339 24.2655 47.1879 21.9056C47.8538 20.6367 48.0979 19.2786 48.0092 17.8538C47.9315 16.4847 47.3877 15.327 46.2779 14.5033C45.1127 13.6351 43.7809 13.457 42.3604 13.6128C37.6106 14.1471 35.6686 19.1896 36.6784 22.4177ZM39.8388 20.7832C39.8401 20.7263 39.8413 20.6699 39.8413 20.6146C39.8746 19.3345 40.1853 18.1435 40.951 17.086C41.2951 16.6185 41.7279 16.2623 42.305 16.1287C43.4813 15.8616 44.4468 16.5406 44.5578 17.8207C44.691 19.3902 44.3136 20.8373 43.326 22.0951C42.9486 22.5626 42.4714 22.8854 41.8611 22.9411C40.7624 23.0413 39.9301 22.2955 39.8413 21.1267C39.8339 21.0149 39.8364 20.8982 39.8388 20.7832ZM50.6504 13.8466H53.4692C53.4248 14.4477 53.3804 15.0265 53.325 15.6165C53.4278 15.5205 53.5272 15.4256 53.6246 15.3326C53.8323 15.1344 54.031 14.9447 54.235 14.7705C55.3336 13.8132 56.5877 13.3902 58.0415 13.624C59.24 13.8243 60.0723 14.7037 60.2055 15.9393C60.3502 17.225 60.1098 18.472 59.8699 19.7164C59.8522 19.808 59.8346 19.8995 59.8171 19.9911C59.7198 20.4966 59.6236 21.002 59.5274 21.5071L59.5273 21.5076L59.5272 21.508C59.3164 22.6156 59.1059 23.7214 58.8849 24.8221C58.8516 24.9668 58.6851 25.1783 58.5741 25.1894C57.6197 25.2117 56.6653 25.2005 55.7109 25.1894C55.679 25.1894 55.647 25.1721 55.5984 25.1457L55.5983 25.1457C55.5795 25.1355 55.5582 25.1239 55.5334 25.1115C55.7109 24.1876 55.8885 23.2526 56.055 22.3175C56.3102 20.8816 56.5544 19.4568 56.7763 18.0209C56.8207 17.776 56.7985 17.5199 56.7652 17.2751C56.6764 16.4179 56.0439 16.0283 55.2227 16.2844C54.4236 16.5404 53.9464 17.1637 53.558 17.8539C52.9809 18.8668 52.7812 19.9911 52.5814 21.1154C52.5316 21.3928 52.4823 21.6696 52.4331 21.9461L52.4324 21.9499L52.4323 21.9505L52.4323 21.9506L52.4323 21.9508C52.2625 22.9044 52.0935 23.8543 51.9044 24.811C51.8712 24.9557 51.7047 25.1783 51.5937 25.1894C50.8155 25.216 50.0302 25.2144 49.1929 25.2126H49.1923C48.9791 25.2121 48.7625 25.2117 48.5419 25.2117C49.2743 21.3825 49.9624 17.6313 50.6504 13.8466ZM66.6532 22.874C65.4768 22.7293 64.6889 21.9056 64.7666 20.7479C65.012 20.7479 65.2561 20.7517 65.499 20.7554C65.9811 20.7628 66.4583 20.7702 66.9306 20.7479C68.0737 20.6812 69.1945 20.4919 70.2377 19.9688C71.5694 19.3009 72.1909 18.1989 72.091 16.7629C71.9911 15.3047 71.2032 14.2473 69.7938 13.8243C67.6852 13.1898 65.7432 13.635 64.0896 15.0487C62.0809 16.7629 61.3263 19.0337 61.6148 21.6273C61.8146 23.464 62.8134 24.7775 64.6334 25.245C66.5866 25.7459 68.5065 25.4788 70.3598 24.7218C70.493 24.6662 70.6483 24.4547 70.6372 24.3211C70.6106 23.7779 70.5556 23.2348 70.5005 22.6916C70.4868 22.5557 70.473 22.4199 70.4597 22.2841C70.4232 22.2841 70.3961 22.2822 70.3753 22.2807C70.3454 22.2787 70.3285 22.2775 70.3154 22.2841C70.1933 22.3286 70.0713 22.3731 69.9603 22.4176C68.8949 22.8295 67.7962 23.0076 66.6532 22.874ZM68.3733 17.9429C67.6963 18.2991 65.9429 18.5106 65.0883 18.3325C65.2659 16.8521 66.8307 15.6944 68.1513 16.0172C68.5952 16.1285 68.917 16.3623 68.9947 16.8409C69.0724 17.3084 68.8394 17.698 68.3733 17.9429ZM75.8532 20.7927C75.7533 21.8836 76.5302 22.7184 77.7176 22.8743C78.8274 23.0078 79.8927 22.8409 80.9359 22.4624C81.0319 22.4263 81.1247 22.3902 81.2265 22.3506L81.227 22.3504C81.3133 22.3168 81.4062 22.2806 81.513 22.2398C81.5347 22.4756 81.5588 22.7066 81.5825 22.9345C81.6316 23.4059 81.6792 23.8636 81.7017 24.3213C81.7128 24.4549 81.5574 24.6664 81.4353 24.7221C79.5487 25.5013 77.6066 25.7684 75.6201 25.223C73.8334 24.7332 72.9012 23.4308 72.6793 21.6498C72.4018 19.3679 72.99 17.3086 74.577 15.6167C76.286 13.8022 78.3835 13.1566 80.8027 13.8245C82.2787 14.2364 83.0667 15.305 83.1555 16.8077C83.2442 18.277 82.5784 19.379 81.1912 20.0247C79.7929 20.6703 78.3058 20.7705 76.7965 20.8038C76.4969 20.7927 76.1861 20.7927 75.8532 20.7927ZM76.1751 18.4216C76.377 18.409 76.5752 18.399 76.7707 18.3892C77.263 18.3645 77.7373 18.3406 78.2059 18.2769C78.6499 18.2213 79.0938 18.0877 79.4933 17.8984C79.9261 17.7092 80.1369 17.3085 80.0704 16.8187C80.0038 16.3512 79.693 16.1286 79.2602 16.0173C77.9507 15.661 76.3193 16.8632 76.1751 18.4216ZM83.7657 22.874C83.6214 23.631 83.4883 24.3768 83.344 25.2005C83.5663 25.2005 83.7853 25.2009 84.0019 25.2014C84.8558 25.2032 85.6702 25.2049 86.4846 25.1782C86.5623 25.1782 86.6844 24.9667 86.7066 24.8331C86.8198 24.2772 86.9247 23.7185 87.0297 23.16C87.2231 22.1305 87.4164 21.1015 87.661 20.0912C88.2048 17.8427 89.1259 17.0635 91.3121 16.7741C91.4009 16.7629 91.5452 16.6628 91.5674 16.5848C91.7066 15.9452 91.8314 15.3006 91.9608 14.6319C92.0273 14.2883 92.0951 13.9383 92.1666 13.5794C90.0581 13.3568 88.8817 14.5812 87.8607 16.0839L87.877 15.868C87.9272 15.2029 87.9782 14.5262 88.0383 13.8131C87.8076 13.8131 87.5812 13.8124 87.3579 13.8117C86.7006 13.8096 86.0711 13.8077 85.4415 13.8243C85.3527 13.8354 85.1862 14.0358 85.1751 14.1582C84.9383 17.0191 84.3779 19.8172 83.8179 22.6133L83.7657 22.874Z" fill="black"/>
<path id="Payoneer_3" fill-rule="evenodd" clip-rule="evenodd" d="M54.3833 0.41778C54.271 0.388039 54.1586 0.358297 54.0462 0.333252C53.7022 0.333252 53.3582 0.333252 52.992 0.344383C52.8669 0.369476 52.7418 0.396831 52.6157 0.424408C52.4621 0.457999 52.307 0.49192 52.1485 0.522484C50.4506 0.845292 48.8525 1.43525 47.31 2.21444C43.9696 3.9064 40.9732 6.09927 38.2876 8.69287C36.5008 10.4071 34.7696 12.1992 33.0939 14.0359C30.153 17.264 27.6338 20.8149 25.6251 24.7108C24.593 26.7256 23.6608 28.7849 23.2391 31.0223C23.1615 31.4341 23.2946 31.9128 23.4278 32.3246C23.4833 32.4916 23.794 32.6141 24.0049 32.6809C24.0604 32.7031 24.2268 32.4248 24.3045 32.269C24.3321 32.2086 24.3603 32.1468 24.3892 32.0835C24.8711 31.0277 25.5229 29.6 26.0883 28.6547C27.2868 26.6511 28.2331 25.1004 29.5759 23.197C31.7288 20.1359 34.2444 17.1324 36.8857 14.4832C39.3826 11.9786 41.8832 9.73921 45.0238 8.04725C46.4665 7.27919 47.9425 6.52226 49.4518 5.89891C52.0598 4.81917 54.7787 4.0845 57.5753 3.67265C57.8749 3.62812 58.2745 3.39436 58.3743 3.14947C58.4631 2.92685 58.2523 2.50386 58.0414 2.29236C57.1869 1.41299 56.1881 0.745111 54.9452 0.544747C54.7579 0.516919 54.5706 0.467349 54.3833 0.41778ZM28.9766 15.6056C29.5093 14.1586 29.7757 12.6558 29.809 11.0975C29.7942 10.9305 29.7818 10.7635 29.7695 10.5965C29.7448 10.2626 29.7202 9.92867 29.6758 9.59473C29.3762 7.01226 28.2664 4.81939 26.5019 2.9382C26.291 2.72671 26.0025 2.55974 25.7139 2.45955C25.4254 2.34824 25.2367 2.51521 25.2589 2.84915C25.2595 2.8562 25.26 2.86326 25.2605 2.87033C25.2822 3.1532 25.3047 3.44616 25.3588 3.72852C25.4368 4.17333 25.5142 4.61868 25.5917 5.06433C25.8671 6.64839 26.1432 8.23626 26.4464 9.81735C26.746 11.4091 27.0789 12.9898 27.4341 14.5593C27.5561 15.0602 27.7559 15.5611 28 16.0286C28.1887 16.3848 28.455 16.3514 28.6992 16.0286C28.8102 15.895 28.9211 15.7615 28.9766 15.6056Z" fill="#FC461E"/>
</g>
</svg>
