<svg width="68" height="59" viewBox="0 0 68 59" fill="none" xmlns="http://www.w3.org/2000/svg">
<g id="PayPal">
<path id="Vector" fill-rule="evenodd" clip-rule="evenodd" d="M8.56978 40.8032H3.3844C3.02956 40.8032 2.72777 41.0611 2.67244 41.4113L0.575203 54.7082C0.533518 54.9706 0.736714 55.2071 1.00285 55.2071H3.47841C3.83325 55.2071 4.13504 54.9492 4.19037 54.5983L4.75602 51.012C4.81058 50.6608 5.11311 50.4032 5.46722 50.4032H7.10873C10.5245 50.4032 12.4958 48.7503 13.0108 45.4748C13.2428 44.0418 13.0207 42.9159 12.3494 42.1271C11.6126 41.2615 10.3052 40.8032 8.56978 40.8032ZM9.16803 45.6597C8.88452 47.5204 7.46284 47.5204 6.0882 47.5204H5.30571L5.85466 44.0453C5.88725 43.8355 6.06922 43.6808 6.28153 43.6808H6.64017C7.57655 43.6808 8.45996 43.6808 8.91645 44.2145C9.18838 44.5331 9.27189 45.006 9.16803 45.6597ZM24.0702 45.6001H21.587C21.3754 45.6001 21.1926 45.7548 21.16 45.965L21.0502 46.6594L20.8765 46.4078C20.3389 45.6274 19.1403 45.3667 17.9438 45.3667C15.1996 45.3667 12.8561 47.445 12.3996 50.3604C12.1624 51.8145 12.4996 53.205 13.3245 54.1748C14.0814 55.0664 15.1642 55.438 16.4523 55.438C18.6631 55.438 19.8895 54.0162 19.8895 54.0162L19.7786 54.7064C19.7368 54.9703 19.94 55.2068 20.2045 55.2068H22.4414C22.7972 55.2068 23.0972 54.9489 23.1533 54.598L24.4954 46.099C24.5379 45.8376 24.3354 45.6001 24.0702 45.6001ZM20.6088 50.4331C20.3691 51.8517 19.2431 52.804 17.8074 52.804C17.0863 52.804 16.5098 52.5727 16.14 52.1345C15.773 51.6994 15.6333 51.0797 15.7502 50.3899C15.974 48.9832 17.1189 48.0001 18.533 48.0001C19.2379 48.0001 19.8112 48.2341 20.1888 48.6762C20.567 49.1229 20.7172 49.746 20.6088 50.4331ZM34.7997 45.5997H37.2951C37.6446 45.5997 37.8485 45.9917 37.6499 46.2783L29.3505 58.258C29.2162 58.452 28.9948 58.5675 28.7583 58.5675H26.266C25.9151 58.5675 25.7102 58.1724 25.9133 57.885L28.4976 54.2373L25.7491 46.1713C25.654 45.891 25.8611 45.5997 26.1593 45.5997H28.6112C28.9298 45.5997 29.2109 45.8088 29.3028 46.1138L30.7614 50.9854L34.2032 45.9159C34.3379 45.718 34.5618 45.5997 34.7997 45.5997Z" fill="#253B80"/>
<path id="Vector_2" fill-rule="evenodd" clip-rule="evenodd" d="M61.8546 54.7081L63.9827 41.1681C64.0153 40.9579 64.1974 40.8032 64.409 40.8025H66.8048C67.0694 40.8025 67.2725 41.0397 67.2308 41.3021L65.1322 54.5983C65.0774 54.9492 64.7757 55.2071 64.4202 55.2071H62.2806C62.016 55.2071 61.8129 54.9706 61.8546 54.7081ZM45.5567 40.8032H40.3703C40.0163 40.8032 39.7145 41.0611 39.6591 41.4113L37.5619 54.7081C37.5202 54.9706 37.7233 55.2071 37.9882 55.2071H40.6493C40.8967 55.2071 41.1082 55.0267 41.1468 54.7811L41.7419 51.012C41.7967 50.6608 42.0991 50.4032 42.4532 50.4032H44.0939C47.5104 50.4032 49.4812 48.7502 49.9967 45.4748C50.2293 44.0418 50.0058 42.9158 49.3349 42.1271C48.5984 41.2614 47.2921 40.8032 45.5567 40.8032ZM46.1549 45.6597C45.8721 47.5204 44.4504 47.5204 43.0749 47.5204H42.2931L42.843 44.0453C42.8756 43.8355 43.056 43.6807 43.2689 43.6807H43.6275C44.5633 43.6807 45.4475 43.6807 45.9037 44.2144C46.176 44.533 46.2588 45.006 46.1549 45.6597ZM61.0557 45.6H58.5742C58.3609 45.6 58.1799 45.7548 58.1479 45.965L58.0381 46.6593L57.8637 46.4078C57.3262 45.6274 56.1283 45.3667 54.9318 45.3667C52.1876 45.3667 49.8448 47.445 49.3883 50.3604C49.1518 51.8145 49.4876 53.205 50.3125 54.1748C51.0707 55.0664 52.1521 55.438 53.4402 55.438C55.6511 55.438 56.877 54.0162 56.877 54.0162L56.7665 54.7064C56.7248 54.9702 56.9279 55.2067 57.1942 55.2067H59.43C59.7841 55.2067 60.0858 54.9488 60.1413 54.598L61.4841 46.099C61.5251 45.8376 61.322 45.6 61.0557 45.6ZM57.5946 50.433C57.3563 51.8516 56.229 52.8039 54.7928 52.8039C54.0732 52.8039 53.4956 52.5727 53.1255 52.1345C52.7584 51.6994 52.6205 51.0797 52.736 50.3899C52.9609 48.9832 54.1044 48.0001 55.5185 48.0001C56.2237 48.0001 56.7967 48.2341 57.1746 48.6762C57.5542 49.1229 57.7044 49.746 57.5946 50.433Z" fill="#179BD7"/>
<path id="Vector_3" d="M27.7598 36.0465L28.3974 31.9974L26.9774 31.9644H20.1967L24.9089 2.08497C24.9233 1.99476 24.9711 1.91065 25.0405 1.85093C25.11 1.79121 25.1991 1.7583 25.2918 1.7583H36.7251C40.5209 1.7583 43.1402 2.54816 44.5079 4.10715C45.149 4.83852 45.5574 5.60277 45.755 6.44382C45.962 7.32635 45.9658 8.3807 45.7634 9.66667L45.7486 9.76053V10.5845L46.39 10.9478C46.93 11.2342 47.3588 11.5621 47.6879 11.9375C48.2367 12.5628 48.5915 13.3576 48.7413 14.2998C48.896 15.2688 48.8448 16.4219 48.5915 17.7274C48.2988 19.2291 47.8258 20.537 47.1872 21.6072C46.5995 22.5933 45.8511 23.4111 44.9627 24.0451C44.1143 24.6472 43.1062 25.1044 41.9665 25.397C40.862 25.6844 39.603 25.8297 38.222 25.8297H37.3321C36.696 25.8297 36.0777 26.0588 35.5928 26.4697C35.1065 26.889 34.7844 27.4616 34.6858 28.0883L34.6188 28.4528L33.4925 35.5893L33.4412 35.8514C33.4279 35.9346 33.4048 35.976 33.3707 36.0041C33.3402 36.0293 33.2963 36.0465 33.2535 36.0465H27.7598Z" fill="#253B80"/>
<path id="Vector_4" d="M46.997 9.85596C46.963 10.0741 46.9241 10.2972 46.8802 10.5263C45.3721 18.2677 40.2139 20.9421 33.6254 20.9421H30.271C29.4654 20.9421 28.7865 21.5271 28.6609 22.3218L26.9433 33.2143L26.457 36.3016C26.3752 36.8234 26.7777 37.2939 27.304 37.2939H33.2538C33.9584 37.2939 34.5567 36.782 34.6675 36.0872L34.7261 35.7848L35.8465 28.676L35.9184 28.2862C36.0279 27.589 36.6275 27.077 37.3321 27.077H38.2219C43.9862 27.077 48.4988 24.7367 49.8178 17.9642C50.3686 15.1351 50.0834 12.7728 48.6255 11.1114C48.1844 10.6105 47.637 10.1948 46.997 9.85596Z" fill="#179BD7"/>
<path id="Vector_5" d="M45.4191 9.22723C45.189 9.16018 44.9511 9.09923 44.7072 9.04439C44.4623 8.99077 44.2111 8.94323 43.9528 8.90179C43.0483 8.75551 42.0574 8.68604 40.9956 8.68604H32.0342C31.8135 8.68604 31.604 8.736 31.4163 8.82621C31.003 9.02488 30.696 9.41618 30.6216 9.8952L28.7149 21.9699L28.6602 22.3221C28.7858 21.5274 29.4647 20.9423 30.2703 20.9423H33.6247C40.2132 20.9423 45.3718 18.2668 46.8795 10.5266C46.9244 10.2974 46.9623 10.0744 46.9963 9.85621C46.6149 9.65386 46.2016 9.48077 45.7567 9.33327C45.6472 9.2967 45.5339 9.26137 45.4191 9.22723Z" fill="#222D65"/>
<path id="Vector_6" d="M30.6216 9.89522C30.696 9.41617 31.0034 9.0249 31.4164 8.82743C31.6055 8.73722 31.8139 8.68725 32.0343 8.68725H40.996C42.0578 8.68725 43.0487 8.75673 43.9529 8.90301C44.2115 8.94445 44.4627 8.99199 44.7076 9.0456C44.9515 9.10048 45.189 9.16143 45.4196 9.22845C45.5339 9.26259 45.6473 9.29792 45.7582 9.33329C46.2031 9.48076 46.6164 9.65508 46.9978 9.8562C47.4466 6.99539 46.9943 5.04756 45.4476 3.28377C43.7424 1.34204 40.6645 0.510742 36.7262 0.510742H25.2925C24.4879 0.510742 23.802 1.0958 23.6774 1.89176L18.9153 32.0784C18.8213 32.6756 19.282 33.2145 19.8841 33.2145H26.943L28.7153 21.9698L30.6216 9.89522Z" fill="#253B80"/>
</g>
</svg>
