<svg width="110" height="32" viewBox="0 0 110 32" fill="none" xmlns="http://www.w3.org/2000/svg">
<path d="M1.837 22V10.3636H5.98473C6.88625 10.3636 7.63435 10.5189 8.22905 10.8295C8.82753 11.1402 9.2745 11.5701 9.56996 12.1193C9.86541 12.6648 10.0131 13.2955 10.0131 14.0114C10.0131 14.7235 9.86352 15.3504 9.56428 15.892C9.26882 16.4299 8.82185 16.8485 8.22337 17.1477C7.62867 17.447 6.88056 17.5966 5.97905 17.5966H2.837V16.0852H5.81996C6.38814 16.0852 6.85026 16.0038 7.20632 15.8409C7.56617 15.678 7.82943 15.4413 7.99609 15.1307C8.16276 14.8201 8.24609 14.447 8.24609 14.0114C8.24609 13.572 8.16087 13.1913 7.99041 12.8693C7.82375 12.5473 7.56049 12.3011 7.20064 12.1307C6.84458 11.9564 6.37678 11.8693 5.79723 11.8693H3.59268V22H1.837ZM7.58132 16.75L10.4563 22H8.45632L5.63814 16.75H7.58132ZM15.6651 22.1761C14.8053 22.1761 14.0647 21.9924 13.4435 21.625C12.8261 21.2538 12.3488 20.733 12.0117 20.0625C11.6784 19.3883 11.5117 18.5985 11.5117 17.6932C11.5117 16.7992 11.6784 16.0114 12.0117 15.3295C12.3488 14.6477 12.8185 14.1155 13.4208 13.733C14.0269 13.3504 14.7352 13.1591 15.5458 13.1591C16.0382 13.1591 16.5155 13.2405 16.9776 13.4034C17.4397 13.5663 17.8545 13.822 18.2219 14.1705C18.5894 14.5189 18.8791 14.9716 19.0913 15.5284C19.3034 16.0814 19.4094 16.7538 19.4094 17.5455V18.1477H12.4719V16.875H17.7447C17.7447 16.428 17.6538 16.0322 17.4719 15.6875C17.2901 15.339 17.0344 15.0644 16.7049 14.8636C16.3791 14.6629 15.9966 14.5625 15.5572 14.5625C15.0799 14.5625 14.6632 14.6799 14.3072 14.9148C13.9549 15.1458 13.6822 15.4489 13.489 15.8239C13.2996 16.1951 13.2049 16.5985 13.2049 17.0341V18.0284C13.2049 18.6117 13.3072 19.108 13.5117 19.517C13.7201 19.9261 14.0098 20.2386 14.381 20.4545C14.7522 20.6667 15.186 20.7727 15.6822 20.7727C16.0041 20.7727 16.2977 20.7273 16.5629 20.6364C16.828 20.5417 17.0572 20.4015 17.2504 20.2159C17.4435 20.0303 17.5913 19.8011 17.6935 19.5284L19.3015 19.8182C19.1727 20.2917 18.9416 20.7064 18.6083 21.0625C18.2788 21.4148 17.864 21.6894 17.364 21.8864C16.8678 22.0795 16.3015 22.1761 15.6651 22.1761ZM27.8342 15.4034L26.2944 15.6761C26.23 15.4792 26.1277 15.2917 25.9876 15.1136C25.8512 14.9356 25.6656 14.7898 25.4308 14.6761C25.1959 14.5625 24.9023 14.5057 24.5501 14.5057C24.069 14.5057 23.6675 14.6136 23.3455 14.8295C23.0236 15.0417 22.8626 15.3163 22.8626 15.6534C22.8626 15.9451 22.9705 16.1799 23.1864 16.358C23.4023 16.536 23.7508 16.6818 24.2319 16.7955L25.6183 17.1136C26.4213 17.2992 27.0198 17.5852 27.4137 17.9716C27.8076 18.358 28.0046 18.8598 28.0046 19.4773C28.0046 20 27.8531 20.4659 27.5501 20.875C27.2508 21.2803 26.8323 21.5985 26.2944 21.8295C25.7603 22.0606 25.141 22.1761 24.4364 22.1761C23.4592 22.1761 22.6618 21.9678 22.0444 21.5511C21.427 21.1307 21.0482 20.5341 20.908 19.7614L22.5501 19.5114C22.6523 19.9394 22.8626 20.2633 23.1808 20.483C23.4989 20.6989 23.9137 20.8068 24.4251 20.8068C24.9819 20.8068 25.427 20.6913 25.7603 20.4602C26.0936 20.2254 26.2603 19.9394 26.2603 19.6023C26.2603 19.3295 26.158 19.1004 25.9535 18.9148C25.7527 18.7292 25.444 18.589 25.0273 18.4943L23.5501 18.1705C22.7357 17.9848 22.1334 17.6894 21.7433 17.2841C21.3569 16.8788 21.1637 16.3655 21.1637 15.7443C21.1637 15.2292 21.3076 14.7784 21.5955 14.392C21.8834 14.0057 22.2811 13.7045 22.7887 13.4886C23.2963 13.2689 23.8777 13.1591 24.533 13.1591C25.4762 13.1591 26.2186 13.3636 26.7603 13.7727C27.302 14.178 27.6599 14.7216 27.8342 15.4034ZM33.5487 22.1761C32.7305 22.1761 32.0165 21.9886 31.4066 21.6136C30.7968 21.2386 30.3233 20.714 29.9862 20.0398C29.649 19.3655 29.4805 18.5777 29.4805 17.6761C29.4805 16.7708 29.649 15.9792 29.9862 15.3011C30.3233 14.6231 30.7968 14.0966 31.4066 13.7216C32.0165 13.3466 32.7305 13.1591 33.5487 13.1591C34.3668 13.1591 35.0808 13.3466 35.6907 13.7216C36.3005 14.0966 36.774 14.6231 37.1112 15.3011C37.4483 15.9792 37.6168 16.7708 37.6168 17.6761C37.6168 18.5777 37.4483 19.3655 37.1112 20.0398C36.774 20.714 36.3005 21.2386 35.6907 21.6136C35.0808 21.9886 34.3668 22.1761 33.5487 22.1761ZM33.5543 20.75C34.0846 20.75 34.524 20.6098 34.8725 20.3295C35.221 20.0492 35.4786 19.6761 35.6452 19.2102C35.8157 18.7443 35.9009 18.2311 35.9009 17.6705C35.9009 17.1136 35.8157 16.6023 35.6452 16.1364C35.4786 15.6667 35.221 15.2898 34.8725 15.0057C34.524 14.7216 34.0846 14.5795 33.5543 14.5795C33.0202 14.5795 32.5771 14.7216 32.2248 15.0057C31.8763 15.2898 31.6168 15.6667 31.4464 16.1364C31.2797 16.6023 31.1964 17.1136 31.1964 17.6705C31.1964 18.2311 31.2797 18.7443 31.4464 19.2102C31.6168 19.6761 31.8763 20.0492 32.2248 20.3295C32.5771 20.6098 33.0202 20.75 33.5543 20.75ZM45.0415 18.3807V13.2727H46.7461V22H45.0756V20.4886H44.9847C44.784 20.9545 44.462 21.3428 44.0188 21.6534C43.5794 21.9602 43.0321 22.1136 42.3768 22.1136C41.8162 22.1136 41.32 21.9905 40.8881 21.7443C40.4601 21.4943 40.123 21.125 39.8768 20.6364C39.6344 20.1477 39.5131 19.5436 39.5131 18.8239V13.2727H41.212V18.6193C41.212 19.214 41.3768 19.6875 41.7063 20.0398C42.0359 20.392 42.4639 20.5682 42.9904 20.5682C43.3086 20.5682 43.6249 20.4886 43.9393 20.3295C44.2575 20.1705 44.5207 19.9299 44.729 19.608C44.9412 19.286 45.0453 18.8769 45.0415 18.3807ZM49.0288 22V13.2727H50.6708V14.6591H50.7617C50.9208 14.1894 51.2011 13.8201 51.6026 13.5511C52.0079 13.2784 52.4663 13.142 52.9776 13.142C53.0837 13.142 53.2087 13.1458 53.3526 13.1534C53.5004 13.161 53.6159 13.1705 53.6992 13.1818V14.8068C53.631 14.7879 53.5098 14.767 53.3356 14.7443C53.1613 14.7178 52.9871 14.7045 52.8129 14.7045C52.4113 14.7045 52.0534 14.7898 51.739 14.9602C51.4284 15.1269 51.1822 15.3598 51.0004 15.6591C50.8185 15.9545 50.7276 16.2917 50.7276 16.6705V22H49.0288ZM58.533 22.1761C57.6883 22.1761 56.9611 21.9848 56.3512 21.6023C55.7451 21.2159 55.2792 20.6837 54.9535 20.0057C54.6277 19.3277 54.4648 18.5511 54.4648 17.6761C54.4648 16.7898 54.6315 16.0076 54.9648 15.3295C55.2982 14.6477 55.7679 14.1155 56.3739 13.733C56.98 13.3504 57.694 13.1591 58.516 13.1591C59.1789 13.1591 59.7698 13.2822 60.2887 13.5284C60.8076 13.7708 61.2262 14.1117 61.5444 14.5511C61.8664 14.9905 62.0576 15.5038 62.1183 16.0909H60.4648C60.3739 15.6818 60.1656 15.3295 59.8398 15.0341C59.5179 14.7386 59.0861 14.5909 58.5444 14.5909C58.0709 14.5909 57.6561 14.7159 57.3001 14.9659C56.9478 15.2121 56.6732 15.5644 56.4762 16.0227C56.2792 16.4773 56.1808 17.0152 56.1808 17.6364C56.1808 18.2727 56.2773 18.822 56.4705 19.2841C56.6637 19.7462 56.9364 20.1042 57.2887 20.358C57.6448 20.6117 58.0633 20.7386 58.5444 20.7386C58.8664 20.7386 59.158 20.6799 59.4194 20.5625C59.6845 20.4413 59.9061 20.2689 60.0842 20.0455C60.266 19.822 60.3929 19.553 60.4648 19.2386H62.1183C62.0576 19.803 61.8739 20.3068 61.5671 20.75C61.2603 21.1932 60.8493 21.5417 60.3342 21.7955C59.8228 22.0492 59.2224 22.1761 58.533 22.1761ZM67.6964 22.1761C66.8365 22.1761 66.096 21.9924 65.4748 21.625C64.8574 21.2538 64.3801 20.733 64.043 20.0625C63.7096 19.3883 63.543 18.5985 63.543 17.6932C63.543 16.7992 63.7096 16.0114 64.043 15.3295C64.3801 14.6477 64.8498 14.1155 65.4521 13.733C66.0581 13.3504 66.7665 13.1591 67.5771 13.1591C68.0695 13.1591 68.5468 13.2405 69.0089 13.4034C69.471 13.5663 69.8858 13.822 70.2532 14.1705C70.6206 14.5189 70.9104 14.9716 71.1225 15.5284C71.3346 16.0814 71.4407 16.7538 71.4407 17.5455V18.1477H64.5032V16.875H69.7759C69.7759 16.428 69.685 16.0322 69.5032 15.6875C69.3214 15.339 69.0657 15.0644 68.7362 14.8636C68.4104 14.6629 68.0278 14.5625 67.5884 14.5625C67.1112 14.5625 66.6945 14.6799 66.3384 14.9148C65.9862 15.1458 65.7134 15.4489 65.5202 15.8239C65.3308 16.1951 65.2362 16.5985 65.2362 17.0341V18.0284C65.2362 18.6117 65.3384 19.108 65.543 19.517C65.7513 19.9261 66.0411 20.2386 66.4123 20.4545C66.7835 20.6667 67.2172 20.7727 67.7134 20.7727C68.0354 20.7727 68.329 20.7273 68.5941 20.6364C68.8593 20.5417 69.0884 20.4015 69.2816 20.2159C69.4748 20.0303 69.6225 19.8011 69.7248 19.5284L71.3327 19.8182C71.204 20.2917 70.9729 20.7064 70.6396 21.0625C70.31 21.4148 69.8952 21.6894 69.3952 21.8864C68.899 22.0795 68.3327 22.1761 67.6964 22.1761ZM79.8654 15.4034L78.3256 15.6761C78.2612 15.4792 78.159 15.2917 78.0188 15.1136C77.8825 14.9356 77.6969 14.7898 77.462 14.6761C77.2272 14.5625 76.9336 14.5057 76.5813 14.5057C76.1003 14.5057 75.6987 14.6136 75.3768 14.8295C75.0548 15.0417 74.8938 15.3163 74.8938 15.6534C74.8938 15.9451 75.0018 16.1799 75.2177 16.358C75.4336 16.536 75.7821 16.6818 76.2631 16.7955L77.6495 17.1136C78.4525 17.2992 79.051 17.5852 79.445 17.9716C79.8389 18.358 80.0359 18.8598 80.0359 19.4773C80.0359 20 79.8844 20.4659 79.5813 20.875C79.2821 21.2803 78.8635 21.5985 78.3256 21.8295C77.7915 22.0606 77.1722 22.1761 76.4677 22.1761C75.4904 22.1761 74.6931 21.9678 74.0756 21.5511C73.4582 21.1307 73.0794 20.5341 72.9393 19.7614L74.5813 19.5114C74.6836 19.9394 74.8938 20.2633 75.212 20.483C75.5302 20.6989 75.945 20.8068 76.4563 20.8068C77.0131 20.8068 77.4582 20.6913 77.7915 20.4602C78.1249 20.2254 78.2915 19.9394 78.2915 19.6023C78.2915 19.3295 78.1893 19.1004 77.9847 18.9148C77.784 18.7292 77.4753 18.589 77.0586 18.4943L75.5813 18.1705C74.7669 17.9848 74.1647 17.6894 73.7745 17.2841C73.3881 16.8788 73.195 16.3655 73.195 15.7443C73.195 15.2292 73.3389 14.7784 73.6268 14.392C73.9147 14.0057 74.3124 13.7045 74.82 13.4886C75.3275 13.2689 75.909 13.1591 76.5643 13.1591C77.5075 13.1591 78.2499 13.3636 78.7915 13.7727C79.3332 14.178 79.6912 14.7216 79.8654 15.4034Z" fill="#667085"/>
<path d="M94.5586 13.5L99.5586 18.5L104.559 13.5" stroke="#667085" stroke-width="1.67" stroke-linecap="round" stroke-linejoin="round"/>
</svg>
