<svg width="41" height="24" viewBox="0 0 41 24" fill="none" xmlns="http://www.w3.org/2000/svg">
<path d="M1.837 18V6.36364H9.05291V7.875H3.59268V11.4205H8.53587V12.9261H3.59268V18H1.837ZM10.7418 18H8.8782L13.0657 6.36364H15.0941L19.2816 18H17.418L14.1282 8.47727H14.0373L10.7418 18ZM11.0543 13.4432H17.0998V14.9205H11.0543V13.4432ZM24.6935 14.2273H26.4208L27.6367 15.8125L28.2106 16.517L30.1481 19.0455H28.3526L27.0572 17.358L26.614 16.7443L24.6935 14.2273ZM30.5231 12.1818C30.5231 13.4242 30.2958 14.4924 29.8413 15.3864C29.3867 16.2765 28.7636 16.9621 27.9719 17.4432C27.1841 17.9205 26.2882 18.1591 25.2844 18.1591C24.2769 18.1591 23.3772 17.9205 22.5856 17.4432C21.7977 16.9621 21.1765 16.2746 20.7219 15.3807C20.2674 14.4867 20.0401 13.4205 20.0401 12.1818C20.0401 10.9394 20.2674 9.87311 20.7219 8.98295C21.1765 8.08901 21.7977 7.40341 22.5856 6.92614C23.3772 6.44508 24.2769 6.20455 25.2844 6.20455C26.2882 6.20455 27.1841 6.44508 27.9719 6.92614C28.7636 7.40341 29.3867 8.08901 29.8413 8.98295C30.2958 9.87311 30.5231 10.9394 30.5231 12.1818ZM28.7844 12.1818C28.7844 11.2348 28.631 10.4375 28.3242 9.78977C28.0212 9.13826 27.6045 8.64583 27.0742 8.3125C26.5477 7.97538 25.9511 7.80682 25.2844 7.80682C24.614 7.80682 24.0155 7.97538 23.489 8.3125C22.9625 8.64583 22.5458 9.13826 22.239 9.78977C21.936 10.4375 21.7844 11.2348 21.7844 12.1818C21.7844 13.1288 21.936 13.928 22.239 14.5795C22.5458 15.2273 22.9625 15.7197 23.489 16.0568C24.0155 16.3902 24.614 16.5568 25.2844 16.5568C25.9511 16.5568 26.5477 16.3902 27.0742 16.0568C27.6045 15.7197 28.0212 15.2273 28.3242 14.5795C28.631 13.928 28.7844 13.1288 28.7844 12.1818ZM39.1154 11.4034L37.5756 11.6761C37.5112 11.4792 37.409 11.2917 37.2688 11.1136C37.1325 10.9356 36.9469 10.7898 36.712 10.6761C36.4772 10.5625 36.1836 10.5057 35.8313 10.5057C35.3503 10.5057 34.9487 10.6136 34.6268 10.8295C34.3048 11.0417 34.1438 11.3163 34.1438 11.6534C34.1438 11.9451 34.2518 12.1799 34.4677 12.358C34.6836 12.536 35.0321 12.6818 35.5131 12.7955L36.8995 13.1136C37.7025 13.2992 38.301 13.5852 38.695 13.9716C39.0889 14.358 39.2859 14.8598 39.2859 15.4773C39.2859 16 39.1344 16.4659 38.8313 16.875C38.5321 17.2803 38.1135 17.5985 37.5756 17.8295C37.0415 18.0606 36.4222 18.1761 35.7177 18.1761C34.7404 18.1761 33.9431 17.9678 33.3256 17.5511C32.7082 17.1307 32.3294 16.5341 32.1893 15.7614L33.8313 15.5114C33.9336 15.9394 34.1438 16.2633 34.462 16.483C34.7802 16.6989 35.195 16.8068 35.7063 16.8068C36.2631 16.8068 36.7082 16.6913 37.0415 16.4602C37.3749 16.2254 37.5415 15.9394 37.5415 15.6023C37.5415 15.3295 37.4393 15.1004 37.2347 14.9148C37.034 14.7292 36.7253 14.589 36.3086 14.4943L34.8313 14.1705C34.0169 13.9848 33.4147 13.6894 33.0245 13.2841C32.6381 12.8788 32.445 12.3655 32.445 11.7443C32.445 11.2292 32.5889 10.7784 32.8768 10.392C33.1647 10.0057 33.5624 9.70455 34.07 9.48864C34.5775 9.26894 35.159 9.15909 35.8143 9.15909C36.7575 9.15909 37.4999 9.36364 38.0415 9.77273C38.5832 10.178 38.9412 10.7216 39.1154 11.4034Z" fill="#667085"/>
</svg>
