<svg width="45" height="24" viewBox="0 0 45 24" fill="none" xmlns="http://www.w3.org/2000/svg">
<path d="M1.837 18V6.36364H3.59268V16.4886H8.86541V18H1.837ZM14.4933 18.1761C13.6334 18.1761 12.8929 17.9924 12.2717 17.625C11.6542 17.2538 11.177 16.733 10.8398 16.0625C10.5065 15.3883 10.3398 14.5985 10.3398 13.6932C10.3398 12.7992 10.5065 12.0114 10.8398 11.3295C11.177 10.6477 11.6467 10.1155 12.2489 9.73295C12.855 9.35038 13.5633 9.15909 14.3739 9.15909C14.8664 9.15909 15.3436 9.24053 15.8058 9.40341C16.2679 9.56629 16.6826 9.82197 17.0501 10.1705C17.4175 10.5189 17.7073 10.9716 17.9194 11.5284C18.1315 12.0814 18.2376 12.7538 18.2376 13.5455V14.1477H11.3001V12.875H16.5728C16.5728 12.428 16.4819 12.0322 16.3001 11.6875C16.1183 11.339 15.8626 11.0644 15.533 10.8636C15.2073 10.6629 14.8247 10.5625 14.3853 10.5625C13.908 10.5625 13.4914 10.6799 13.1353 10.9148C12.783 11.1458 12.5103 11.4489 12.3171 11.8239C12.1277 12.1951 12.033 12.5985 12.033 13.0341V14.0284C12.033 14.6117 12.1353 15.108 12.3398 15.517C12.5482 15.9261 12.8379 16.2386 13.2092 16.4545C13.5804 16.6667 14.0141 16.7727 14.5103 16.7727C14.8323 16.7727 15.1258 16.7273 15.391 16.6364C15.6561 16.5417 15.8853 16.4015 16.0785 16.2159C16.2717 16.0303 16.4194 15.8011 16.5217 15.5284L18.1296 15.8182C18.0008 16.2917 17.7698 16.7064 17.4364 17.0625C17.1069 17.4148 16.6921 17.6894 16.1921 17.8864C15.6959 18.0795 15.1296 18.1761 14.4933 18.1761ZM22.6623 18.1932C22.1093 18.1932 21.6093 18.0909 21.1623 17.8864C20.7153 17.678 20.3612 17.3769 20.0998 16.983C19.8422 16.589 19.7134 16.1061 19.7134 15.5341C19.7134 15.0417 19.8081 14.6364 19.9975 14.3182C20.1869 14 20.4426 13.7481 20.7646 13.5625C21.0865 13.3769 21.4464 13.2367 21.8441 13.142C22.2418 13.0473 22.6471 12.9754 23.06 12.9261C23.5827 12.8655 24.007 12.8163 24.3327 12.7784C24.6585 12.7367 24.8952 12.6705 25.043 12.5795C25.1907 12.4886 25.2646 12.3409 25.2646 12.1364V12.0966C25.2646 11.6004 25.1244 11.2159 24.8441 10.9432C24.5676 10.6705 24.1547 10.5341 23.6055 10.5341C23.0335 10.5341 22.5827 10.661 22.2532 10.9148C21.9274 11.1648 21.7021 11.4432 21.5771 11.75L19.9805 11.3864C20.1699 10.8561 20.4464 10.428 20.81 10.1023C21.1774 9.77273 21.5998 9.53409 22.0771 9.38636C22.5543 9.23485 23.0562 9.15909 23.5827 9.15909C23.9312 9.15909 24.3005 9.20076 24.6907 9.28409C25.0846 9.36364 25.4521 9.51136 25.793 9.72727C26.1377 9.94318 26.4199 10.2519 26.6396 10.6534C26.8593 11.0511 26.9691 11.5682 26.9691 12.2045V18H25.31V16.8068H25.2418C25.132 17.0265 24.9672 17.2424 24.7475 17.4545C24.5278 17.6667 24.2456 17.8428 23.9009 17.983C23.5562 18.1231 23.1433 18.1932 22.6623 18.1932ZM23.0316 16.8295C23.5013 16.8295 23.9028 16.7367 24.2362 16.5511C24.5733 16.3655 24.829 16.1231 25.0032 15.8239C25.1812 15.5208 25.2702 15.197 25.2702 14.8523V13.7273C25.2096 13.7879 25.0922 13.8447 24.918 13.8977C24.7475 13.947 24.5524 13.9905 24.3327 14.0284C24.113 14.0625 23.899 14.0947 23.6907 14.125C23.4824 14.1515 23.3081 14.1742 23.168 14.1932C22.8384 14.2348 22.5373 14.3049 22.2646 14.4034C21.9956 14.5019 21.7797 14.6439 21.6168 14.8295C21.4577 15.0114 21.3782 15.2538 21.3782 15.5568C21.3782 15.9773 21.5335 16.2955 21.8441 16.5114C22.1547 16.7235 22.5505 16.8295 23.0316 16.8295ZM29.2319 18V9.27273H30.8739V10.6591H30.9648C31.1239 10.1894 31.4042 9.82008 31.8058 9.55114C32.2111 9.27841 32.6694 9.14205 33.1808 9.14205C33.2868 9.14205 33.4118 9.14583 33.5558 9.15341C33.7035 9.16098 33.819 9.17045 33.9023 9.18182V10.8068C33.8342 10.7879 33.713 10.767 33.5387 10.7443C33.3645 10.7178 33.1902 10.7045 33.016 10.7045C32.6145 10.7045 32.2565 10.7898 31.9421 10.9602C31.6315 11.1269 31.3853 11.3598 31.2035 11.6591C31.0217 11.9545 30.9308 12.2917 30.9308 12.6705V18H29.2319ZM37.0714 12.8182V18H35.3725V9.27273H37.0032V10.6932H37.1112C37.3119 10.2311 37.6263 9.85985 38.0543 9.57955C38.4862 9.29924 39.0297 9.15909 39.685 9.15909C40.2797 9.15909 40.8005 9.28409 41.2475 9.53409C41.6945 9.7803 42.0411 10.1477 42.2873 10.6364C42.5335 11.125 42.6566 11.7292 42.6566 12.4489V18H40.9577V12.6534C40.9577 12.0208 40.793 11.5265 40.4634 11.1705C40.1339 10.8106 39.6812 10.6307 39.1055 10.6307C38.7115 10.6307 38.3612 10.7159 38.0543 10.8864C37.7513 11.0568 37.5108 11.3068 37.3327 11.6364C37.1585 11.9621 37.0714 12.3561 37.0714 12.8182Z" fill="#667085"/>
</svg>
